<svg width="14" height="10" viewBox="0 0 14 10" fill="none" xmlns="http://www.w3.org/2000/svg">
<path fill-rule="evenodd" clip-rule="evenodd" d="M0 5C0 4.81059 0.0752414 4.62895 0.209172 4.49502C0.343102 4.36108 0.524751 4.28584 0.714157 4.28584H10.8634L7.79679 1.22068C7.66269 1.08658 7.58735 0.904705 7.58735 0.715059C7.58735 0.525414 7.66269 0.343536 7.79679 0.209436C7.93089 0.0753365 8.11277 0 8.30241 0C8.49206 0 8.67393 0.0753365 8.80803 0.209436L13.093 4.49438C13.1595 4.56072 13.2122 4.63952 13.2483 4.72629C13.2843 4.81305 13.3028 4.90606 13.3028 5C13.3028 5.09394 13.2843 5.18695 13.2483 5.27371C13.2122 5.36048 13.1595 5.43928 13.093 5.50562L8.80803 9.79056C8.67393 9.92466 8.49206 10 8.30241 10C8.11277 10 7.93089 9.92466 7.79679 9.79056C7.66269 9.65647 7.58735 9.47459 7.58735 9.28494C7.58735 9.0953 7.66269 8.91342 7.79679 8.77932L10.8634 5.71416H0.714157C0.524751 5.71416 0.343102 5.63892 0.209172 5.50499C0.0752414 5.37106 0 5.18941 0 5Z" fill="white"/>
</svg>
