<svg width="32" height="32" viewBox="0 0 32 32" fill="none" xmlns="http://www.w3.org/2000/svg">
<rect width="32" height="32" rx="16" fill="white"/>
<path d="M14.3801 19.9709H11.7937C11.7891 19.8896 11.7868 19.8075 11.7868 19.7246V9.85956C11.7868 8.83293 12.6197 8 13.6463 8H15.5059V18.419C15.5059 18.7134 15.5741 18.9916 15.6965 19.2395C15.4222 19.6788 14.9349 19.9709 14.3801 19.9709Z" fill="#171717"/>
<path d="M25.1397 20.2809V22.1404C25.1397 23.1671 24.3067 24 23.2801 24H17.4852C19.031 23.3987 20.1731 21.9816 20.3792 20.2809H25.1397Z" fill="#171717"/>
<path d="M6.86032 24H15.7568C18.1184 24 20.0322 22.0854 20.0322 19.7246V9.85956C20.0322 8.83293 19.1993 8 18.1727 8H16.3131V18.419C16.3131 19.4472 15.4794 20.2809 14.4512 20.2809H8.71988C7.69325 20.2809 6.86032 21.1138 6.86032 22.1404V24Z" fill="url(#paint0_linear_47_486)"/>
<defs>
<linearGradient id="paint0_linear_47_486" x1="20.0186" y1="8" x2="6.86032" y2="24.0033" gradientUnits="userSpaceOnUse">
<stop stop-color="#009FFF"/>
<stop offset="1" stop-color="#007EDF"/>
</linearGradient>
</defs>
</svg>
